Coordinates
version=1
nRows=16
nColumns=36
inDegrees=yes

Units are S.I. units (second, meters, Newtons, ...)
If the header above contains a line with 'inDegrees', this indicates whether rotational values are in degrees (yes) or radians (no).

endheader
time	pelvis_tilt	pelvis_list	pelvis_rotation	pelvis_tx	pelvis_ty	pelvis_tz	hip_flexion_r	hip_adduction_r	hip_rotation_r	knee_angle_r	knee_angle_r_beta	ankle_angle_r	subtalar_angle_r	mtp_angle_r	hip_flexion_l	hip_adduction_l	hip_rotation_l	knee_angle_l	knee_angle_l_beta	ankle_angle_l	subtalar_angle_l	mtp_angle_l	lumbar_extension	lumbar_bending	lumbar_rotation	arm_flex_r	arm_add_r	arm_rot_r	elbow_flex_r	pro_sup_r	arm_flex_l	arm_add_l	arm_rot_l	elbow_flex_l	pro_sup_l
      1.71250000	    -12.55413793	      0.90778992	     -0.44474529	     -0.93085650	      1.23137069	     -0.10997721	     25.30834278	     -0.05901319	     -0.70676779	     23.63371794	      0.41248619	     10.31452716	    -20.84317058	     -7.49999987	     16.12809070	      2.71982141	      8.43803813	     11.27532048	      0.19679147	      9.99386831	    -11.36910174	     -7.49999987	    -14.80737659	      2.77570664	     -6.09229533	      2.26054756	    -14.16857718	     20.39603198	     20.30096844	     74.21126126	      8.04050690	    -20.25540473	     18.72419038	     30.05731997	     71.04672444
      1.71666670	    -13.18702741	      1.03768845	     -0.51462230	     -0.92834273	      1.22671413	     -0.10840452	     26.59684338	     -0.20003256	     -0.51865193	     24.57514795	      0.42891725	     10.63207506	    -20.87880000	     -7.49999987	     17.26920787	      2.83924657	      8.08277305	     11.88174146	      0.20737551	     10.18257900	    -11.31122138	     -7.49999987	    -14.32219653	      2.63399882	     -6.22541876	      1.38573185	    -14.53047436	     21.43763690	     19.98346665	     74.43694310	      7.13281105	    -20.42105858	     18.79731980	     29.31100544	     71.07781744
      1.72083330	    -13.85349482	      1.19471561	     -0.53472858	     -0.92892751	      1.22495087	     -0.11066004	     27.83865330	     -0.43435217	     -0.33543198	     25.50965721	      0.44522751	     10.94601028	    -20.80072257	     -7.49999987	     18.29298511	      3.00987585	      7.83210680	     12.32689768	      0.21514495	     10.26893032	    -11.36363989	     -7.49999987	    -13.72202672	      2.50543930	     -6.42099039	      0.64812874	    -15.03310348	     23.49773032	     19.38255162	     73.61770259	      6.25746363	    -20.42338479	     19.04665514	     28.29922504	     70.31150217
      1.72500000	    -14.41801191	      1.33207909	     -0.62777296	     -0.93237267	      1.22489538	     -0.11292740	     28.96229541	     -0.65186101	     -0.05653721	     26.33635315	      0.45965608	     11.18643325	    -20.76896143	     -7.49999987	     19.29010767	      3.19751679	      7.61110796	     12.89255724	      0.22501757	     10.42862430	    -11.51975234	     -7.49999987	    -13.35859598	      2.47900910	     -6.48955032	     -0.03656123	    -15.42835091	     23.75020237	     18.98737176	     72.87066920	      5.50726260	    -20.24909440	     18.91278484	     27.30982923	     69.67751657
      1.72916670	    -15.07548507	      1.52982145	     -0.73029284	     -0.93386239	      1.22347382	     -0.11198566	     30.21172865	     -0.85911745	      0.18048146	     27.12515831	      0.47342332	     11.37003597	    -20.70410374	     -7.49999987	     20.35812648	      3.40837953	      7.40125366	     13.41837034	      0.23419474	     10.50434130	    -11.70411871	     -7.49999987	    -12.90148576	      2.27591498	     -6.54244054	     -0.78030160	    -15.73122783	     24.23129128	     18.61021105	     72.19140692	      4.81519022	    -20.20127406	     18.91961174	     26.38348367	     69.06414118
      1.73333330	    -15.79136426	      1.72048243	     -0.89079407	     -0.93484511	      1.22105809	     -0.11104801	     31.50926792	     -1.07371118	      0.14093790	     27.92902424	      0.48745343	     11.53820634	    -20.65630664	     -7.49999987	     21.40706707	      3.57910680	      7.14934655	     13.85359815	      0.24179090	     10.66970832	    -11.78532364	     -7.49999987	    -12.40296700	      2.09192610	     -6.36688353	     -1.52556536	    -16.08523393	     25.37464228	     18.01723195	     71.66143981	      4.23151731	    -20.08714969	     19.31397190	     25.19832681	     68.51035881
      1.73750000	    -16.28672367	      1.93250771	     -1.06971153	     -0.93427335	      1.22243475	     -0.11299306	     32.46244889	     -1.32615389	      0.13863760	     28.55323525	      0.49834797	     11.61921856	    -20.56469570	     -7.49999987	     22.12919577	      3.78725925	      6.88883836	     14.22436079	      0.24826193	     10.71666570	    -12.04804633	     -7.49999987	    -12.16554536	      1.85733716	     -6.44574886	     -1.92790940	    -16.55177466	     28.49781935	     17.35717617	     70.74830643	      3.70509954	    -20.27149630	     21.65504039	     23.93240992	     67.54349164
      1.74166670	    -17.04232289	      2.19352428	     -1.28698104	     -0.93729933	      1.21969422	     -0.11496112	     33.90431232	     -1.63534945	      0.06170761	     29.44193461	      0.51385870	     11.72278637	    -20.60999961	     -7.49999987	     23.30779177	      4.07491296	      6.51471286	     14.87504705	      0.25961855	     10.88012255	    -12.26570152	     -7.49999987	    -11.77563825	      1.67647865	     -6.46546624	     -2.61274070	    -16.88292257	     28.94696734	     16.93617524	     69.78103790	      3.06169444	    -20.14694742	     22.00873553	     22.85272676	     66.70090149
      1.74583330	    -17.84431938	      2.54290250	     -1.47538336	     -0.94059014	      1.21607864	     -0.11571913	     35.46458338	     -2.03449759	      0.06297098	     30.31314218	      0.52906414	     11.54136375	    -20.92304189	     -7.49999987	     24.59686701	      4.45298180	      6.14872735	     15.49870810	      0.27050349	     10.99996411	    -12.52173919	     -7.49999987	    -11.39883827	      1.31425143	     -6.47816484	     -3.19222789	    -17.27436871	     29.67008480	     16.65197507	     68.93646916	      2.44044493	    -20.19932669	     22.75800701	     21.85932842	     65.93718567
      1.75000000	    -17.93452883	      2.74869300	     -1.72936706	     -0.93968990	      1.21831208	     -0.11974513	     35.90503744	     -2.36866351	     -0.05687833	     30.67895942	      0.53544885	     11.30770295	    -20.81195418	     -7.49999987	     24.90715915	      4.72982552	      5.96402902	     15.73470788	      0.27462246	     10.97587985	    -12.57470899	     -7.49999987	    -11.91964010	      1.28687017	     -6.53701267	     -3.73999140	    -17.94941242	     29.68637254	     16.44141147	     68.89076141	      1.64381446	    -20.11942375	     22.93684790	     21.48012760	     65.91046929
      1.75416670	    -19.02384389	      3.13866418	     -1.90318783	     -0.94221348	      1.21744613	     -0.11880206	     37.69106684	     -2.80600873	     -0.10136938	     31.43818111	      0.54869977	     11.44773437	    -20.55346139	     -7.49999987	     26.63235599	      5.16409504	      5.69570512	     16.46622492	      0.28738984	     10.97358341	    -12.75299598	     -7.49999987	    -11.14274346	      0.94708344	     -7.10787623	     -4.24080532	    -18.33596237	     29.60295593	     16.70931573	     68.23521947	      0.63258787	    -20.07232561	     23.51033173	     20.11178992	     65.40097046
      1.75833330	    -19.96258605	      3.42269824	     -2.04087032	     -0.94319650	      1.21392766	     -0.11956919	     39.20479015	     -3.19654843	     -0.35623257	     32.11933443	      0.56058814	     11.64576335	    -19.98004938	     -7.49999987	     28.08341525	      5.49661324	      5.51241275	     17.14854163	      0.29929851	     11.04848387	    -12.94139919	     -7.49999987	    -10.39448077	      0.70110918	     -6.84149813	     -5.53058958	    -18.81463025	     29.35388953	     16.77826309	     66.69117515	      0.24271885	    -19.99666335	     25.98424591	     18.52290040	     63.78018119
      1.76250000	    -20.11629028	      3.57050506	     -2.23999736	     -0.95426199	      1.21413416	     -0.11811106	     39.93211688	     -3.31668547	     -0.46030351	     32.51252875	      0.56745067	     11.43352742	    -19.96793712	     -7.49999987	     28.77524737	      5.68354949	      5.25571712	     17.65683150	      0.30816985	     10.96183621	    -13.10980297	     -7.49999987	    -11.24137604	      0.79384754	     -7.06730056	     -4.72443985	    -18.93421016	     28.99787877	     16.91812714	     66.57018061	      0.06938107	    -20.14572367	     26.10412763	     18.21630607	     63.71419576
      1.76666670	    -20.36899395	      3.70220311	     -2.25810946	     -0.95419652	      1.21600317	     -0.11602597	     40.78098645	     -3.42676921	     -0.55297457	     33.03857515	      0.57663192	     11.32200992	    -20.03772158	     -7.49999987	     29.73540068	      5.85969757	      5.14914039	     18.58078531	      0.32429588	     10.82651758	    -13.38427366	     -7.49999987	    -11.77744409	      0.74354031	     -7.93554101	     -3.98726086	    -18.71219534	     27.95437383	     17.00988505	     66.23094819	     -0.94265541	    -20.39046119	     26.36211056	     17.47227165	     63.56480830
      1.77083330	    -21.51967726	      3.72300510	     -2.12247779	     -0.95845395	      1.21018082	     -0.12227807	     42.63102869	     -3.55729217	     -0.70135248	     33.54332367	      0.58544144	     11.53458559	    -19.76085272	     -7.49999987	     31.81190895	      6.01776358	      5.18595397	     19.71947876	      0.34416983	     10.77568592	    -13.83696072	     -7.49999987	    -11.00122478	      1.17789447	     -7.85942529	     -5.51960900	    -18.12837896	     15.55108286	     19.16212500	     63.93437421	     -1.51531864	    -20.04070865	     27.81401593	     16.66621671	     60.57382524
      1.77500000	    -22.17334392	      3.69949220	     -1.96353714	     -0.96224587	      1.21063803	     -0.12204266	     43.88898232	     -3.61770378	     -0.73959368	     33.97928618	      0.59305042	     11.67343285	    -19.40300457	     -7.49999987	     33.35316619	      6.13975383	      5.21690608	     20.78961303	      0.36284720	     10.71092181	    -13.96644343	     -7.49999987	    -11.18003044	      1.43239224	     -7.79813156	     -6.47171279	    -17.79159043	      7.03671775	     21.40904790	     67.37131663	     -1.60745839	    -19.96456261	     29.74384978	     15.83841053	     57.55748159
